Coordinates
nRows=9
nColumns=38

# SIMM Motion File Header:
name Coordinates
datacolumns 38
datarows 9
otherdata 1
range 0.24491700000000000000 0.25291700000000000000

Units are S.I. units (second, meters, Newtons, ...)
Angles are in degrees.

endheader
time	pelvis_tilt	pelvis_list	pelvis_rotation	pelvis_tx	pelvis_ty	pelvis_tz	hip_flexion_r	hip_adduction_r	hip_rotation_r	knee_angle_r	ankle_angle_r	subtalar_angle_r	mtp_angle_r	hip_flexion_l	hip_adduction_l	hip_rotation_l	knee_angle_l	ankle_angle_l	subtalar_angle_l	mtp_angle_l	lumbar_extension	lumbar_bending	lumbar_rotation	arm_flex_r	arm_add_r	arm_rot_r	elbow_flex_r	pro_sup_r	wrist_flex_r	wrist_dev_r	arm_flex_l	arm_add_l	arm_rot_l	elbow_flex_l	pro_sup_l	wrist_flex_l	wrist_dev_l
      0.24491700000000000000	     -2.99521991588930270000	     -1.18584758276330330000	    -10.86291015502217000000	      0.76278060250396162000	      0.94678886297721132000	     -0.36898299349884411000	      2.02959768034410490000	      6.11872873462889010000	      7.69275642880498720000	    -33.06096526193722700000	     20.39191707032273700000	      0.00000000000000615329	     -0.00000000000001475250	     38.99812542883557100000	     -3.97449300535855650000	     -6.25422075809714430000	   -130.42168358091308000000	      8.46607871842662260000	     -0.00000000000000529786	     -0.00000000000000474168	    -16.82346151618607500000	      2.22998166587861620000	      6.46643565461999790000	      5.74709093360873700000	    -28.17962011367556500000	      1.05930594120965700000	    111.57949641783424000000	     80.65645112364923400000	      0.00000000000000132041	      0.00000000000000002104	    -41.63275782833035500000	    -18.00318828527235800000	    -14.60769330135103800000	    106.83786271765688000000	    141.09356664646722000000	      0.00000000000000718294	     -0.00000000000000015842
      0.24591700000000000000	     -2.96235624760854190000	     -1.06285865072518690000	    -10.88487832781705900000	      0.76307233215178882000	      0.94726483694747943000	     -0.36877439555453417000	      1.46924483649050150000	      5.89992886064011120000	      7.77431718883035480000	    -32.63571579375133800000	     20.10837121821811000000	      0.00000000000000646481	     -0.00000000000001519604	     39.33726948786747400000	     -3.85951899110401260000	     -6.25467646635799030000	   -130.01223009927398000000	      8.56122684514432740000	     -0.00000000000000535022	     -0.00000000000000481058	    -16.78212796541846800000	      2.06673401872357320000	      6.65354930153047070000	      5.92756938459145830000	    -28.05334700039736300000	      1.22458407495695880000	    111.79585041015635000000	     80.65521101510252300000	      0.00000000000000134331	      0.00000000000000002957	    -41.77900879098648800000	    -18.15121945118625000000	    -14.70067399232797800000	    107.01124544952326000000	    140.58042588832063000000	      0.00000000000000729043	     -0.00000000000000020216
      0.24691700000000000000	     -2.93212277031428940000	     -0.93823140961103579000	    -10.90518824271529800000	      0.76337262275865636000	      0.94774205344262352000	     -0.36856909928332698000	      0.91180049304759647000	      5.67780446660475850000	      7.85009617167414220000	    -32.20584899609392700000	     19.80544909692690000000	      0.00000000000000676015	     -0.00000000000001564663	     39.67374885453021700000	     -3.74344971939556540000	     -6.25683849599777190000	   -129.59327725366458000000	      8.65482433611794020000	     -0.00000000000000540297	     -0.00000000000000488367	    -16.73650642779859200000	      1.90297740870607380000	      6.84041198336220370000	      6.10240811090864540000	    -27.93104960061932800000	      1.39100739801149850000	    112.01415241930947000000	     80.65068449778041800000	      0.00000000000000136705	      0.00000000000000003508	    -41.92537575475864000000	    -18.30295820935675300000	    -14.79324521489489900000	    107.18563205156619000000	    140.04914277244379000000	      0.00000000000000739809	     -0.00000000000000024923
      0.24791700000000000000	     -2.90466335351046560000	     -0.81202555227899587000	    -10.92387729483663600000	      0.76368130608310103000	      0.94822000848410171000	     -0.36836713936869331000	      0.35752165454348223000	      5.45253786119724640000	      7.91991913153992580000	    -31.77153479887348900000	     19.48294767862876500000	      0.00000000000000704254	     -0.00000000000001608502	     40.00769600979931800000	     -3.62634915871716100000	     -6.26068010409638640000	   -129.16500441317930000000	      8.74681225707404590000	     -0.00000000000000545544	     -0.00000000000000495289	    -16.68647256085692400000	      1.73878528512724450000	      7.02689730252261490000	      6.27190258920952190000	    -27.81275448060453900000	      1.55886019540406420000	    112.23420782418742000000	     80.64290007869003300000	      0.00000000000000139049	      0.00000000000000003858	    -42.07202868882527000000	    -18.45816928357045200000	    -14.88560901028660800000	    107.36089845091776000000	    139.50098954686959000000	      0.00000000000000750510	     -0.00000000000000029589
      0.24891700000000000000	     -2.88010776131474030000	     -0.68430638203586991000	    -10.94098029595667400000	      0.76399820330834789000	      0.94869821925517894000	     -0.36816855112406166000	     -0.19334718449882360000	      5.22431745138904450000	      7.98360929923086540000	    -31.33295403494718600000	     19.14069182083886000000	      0.00000000000000733362	     -0.00000000000001651875	     40.33923004261517100000	     -3.50828011432028040000	     -6.26616396423959900000	   -128.72758757210099000000	      8.83712596074418850000	     -0.00000000000000550484	     -0.00000000000000502598	    -16.63191976334157100000	      1.57423326941532430000	      7.21287725644719830000	      6.43634679880539640000	    -27.69847956685558500000	      1.72841582417208170000	    112.45582226339670000000	     80.63188664254288100000	      0.00000000000000141331	      0.00000000000000004361	    -42.21913355513313300000	    -18.61661608427283500000	    -14.97796133296031800000	    107.53692806559800000000	    138.93719535131066000000	      0.00000000000000761272	     -0.00000000000000035180
      0.24991700000000000000	     -2.85857151889982620000	     -0.55514505971147543000	    -10.95652936400518800000	      0.76432312501824828000	      0.94917622489754716000	     -0.36797337052758367000	     -0.74057410934926182000	      4.99333770164757330000	      8.04098731742461580000	    -30.89029839157421600000	     18.77853432976957000000	      0.00000000000000761121	     -0.00000000000001691563	     40.66845632234012000000	     -3.38930446729702380000	     -6.27324192020589070000	   -128.28119916876906000000	      8.92569514768673140000	     -0.00000000000000555077	     -0.00000000000000510601	    -16.57275940089324400000	      1.40939955145871740000	      7.39822289173736180000	      6.59603210062256110000	    -27.58823460803612800000	      1.89993545645532120000	    112.67880228145719000000	     80.61767353291377000000	      0.00000000000000143463	      0.00000000000000005104	    -42.36685127675630700000	    -18.77806134665630800000	    -15.07049143709964800000	    107.71361151782813000000	    138.35894249601972000000	      0.00000000000000772428	     -0.00000000000000042634
      0.25091700000000000000	     -2.84015688342546690000	     -0.42461873164562819000	    -10.97055397136505700000	      0.76465587071494212000	      0.94965358590126159000	     -0.36778163406215703000	     -1.28393843773803120000	      4.75979929291338080000	      8.09187140046890900000	    -30.44377120334338500000	     18.39636080340638800000	      0.00000000000000790321	     -0.00000000000001735996	     40.99546752239345400000	     -3.26948361900780430000	     -6.28185477444052150000	   -127.82600810107429000000	      9.01244381012673830000	     -0.00000000000000559668	     -0.00000000000000519482	    -16.50891980484675900000	      1.24436535820467410000	      7.58280511724627360000	      6.75124590445584080000	    -27.48202160914964800000	      2.07366680257348830000	    112.90295596289654000000	     80.60029072561624700000	      0.00000000000000145516	      0.00000000000000006051	    -42.51533686609593600000	    -18.94226775332093400000	    -15.16338128392360800000	    107.89084625660684000000	    137.76736289215290000000	      0.00000000000000783776	     -0.00000000000000050749
      0.25191700000000000000	     -2.82495209487183850000	     -0.29281059408470639000	    -10.98308093040819200000	      0.76499622916305854000	      0.95012988588763669000	     -0.36759337860547608000	     -1.82323156271115440000	      4.52390873075600020000	      8.13607747307758090000	    -29.99358718369260000000	     17.99409015233967300000	      0.00000000000000817599	     -0.00000000000001774916	     41.32034249573158700000	     -3.14887854635399430000	     -6.29193238294502690000	   -127.36217940399766000000	      9.09729059780298680000	     -0.00000000000000564401	     -0.00000000000000528164	    -16.44034712936577900000	      1.07921500587652820000	      7.76649533054404540000	      6.90227078309100150000	    -27.37983531400546500000	      2.24984304264787750000	    113.12809352736330000000	     80.57976899720917200000	      0.00000000000000147671	      0.00000000000000007129	    -42.66473840582833800000	    -19.10899863230051200000	    -15.25680504811078800000	    108.06853634178327000000	    137.16353544417552000000	      0.00000000000000794979	     -0.00000000000000059653
      0.25291700000000000000	     -2.81303006318057490000	     -0.15980964264369116000	    -10.99413453813242600000	      0.76534397908910490000	      0.95060473408802659000	     -0.36740864113315919000	     -2.35825851752970590000	      4.28587743235486670000	      8.17341953334924480000	    -29.53997179405655200000	     17.57167303502100700000	      0.00000000000000843852	     -0.00000000000001816121	     41.64314441230006700000	     -3.02754959272894110000	     -6.30339427094475100000	   -126.88987379571611000000	      9.18014966489848310000	     -0.00000000000000569212	     -0.00000000000000538690	    -16.36700675075887200000	      0.91403545200148995000	      7.94916597059093010000	      7.04938391772941220000	    -27.28166372763412500000	      2.42868210467417490000	    113.35402783621691000000	     80.55614027510696900000	      0.00000000000000149510	      0.00000000000000008031	    -42.81519612700098100000	    -19.27801870380418200000	    -15.35092883712000100000	    108.24659228324184000000	    136.54848555840132000000	      0.00000000000000806115	     -0.00000000000000068535
